<svg id="Layer_1" data-name="Layer 1" xmlns="http://www.w3.org/2000/svg" width="194.52" height="96.89" viewBox="0 0 194.52 96.89">
  <defs>
    <style>
      .cls-1 {
        fill: none;
        stroke: #48271d;
        stroke-linecap: round;
        stroke-linejoin: round;
        stroke-width: 2px;
      }

      .cls-2 {
        fill: #48271d;
      }
    </style>
  </defs>
  <path class="cls-1" d="M79.18,25.51a8.09,8.09,0,0,1,.61,3.11,8.22,8.22,0,1,1-14.32-5.5,6.15,6.15,0,0,1,3.7-10.78v-.22a4.37,4.37,0,1,1,7.36,3.18,6.14,6.14,0,0,1,2.65,10.21Z" transform="translate(-0.89 -0.11)"/>
  <path class="cls-1" d="M71.77,29.38V42.9" transform="translate(-0.89 -0.11)"/>
  <path class="cls-1" d="M132.27,25.51a8.22,8.22,0,1,1-13.71-2.39,6.15,6.15,0,0,1,3.7-10.78v-.22a4.37,4.37,0,1,1,7.36,3.18,6.14,6.14,0,0,1,2.65,10.21Z" transform="translate(-0.89 -0.11)"/>
  <path class="cls-1" d="M124.86,29.38V42.9" transform="translate(-0.89 -0.11)"/>
  <path class="cls-1" d="M39.08,42.9H158.46" transform="translate(-0.89 -0.11)"/>
  <path class="cls-1" d="M98.89,1.11V42.9" transform="translate(-0.89 -0.11)"/>
  <path class="cls-1" d="M91,8.75l7.94-7.64" transform="translate(-0.89 -0.11)"/>
  <path class="cls-1" d="M106.83,8.75,98.89,1.11" transform="translate(-0.89 -0.11)"/>
  <path class="cls-1" d="M88.32,21.28,98.89,11.11" transform="translate(-0.89 -0.11)"/>
  <path class="cls-1" d="M109.46,21.28,98.89,11.11" transform="translate(-0.89 -0.11)"/>
  <path class="cls-1" d="M86.41,35.64l12.48-12" transform="translate(-0.89 -0.11)"/>
  <path class="cls-1" d="M111.37,35.64l-12.48-12" transform="translate(-0.89 -0.11)"/>
  <path class="cls-1" d="M53.23,86.77c2.55,0,5.07-2.94,7.6-2.94s5,2.94,7.6,2.94,5-2.94,7.57-2.94,5.08,2.94,7.6,2.94,5.05-2.94,7.57-2.94,5.08,2.94,7.6,2.94m0,0c2.53,0,5-2.94,7.61-2.94s5,2.94,7.57,2.94,5.07-2.94,7.6-2.94,5,2.94,7.57,2.94,5.08-2.94,7.6-2.94,5.05,2.94,7.6,2.94" transform="translate(-0.89 -0.11)"/>
  <path class="cls-1" d="M67.33,96c2.64,0,5.26-3,7.87-3s5.23,3,7.87,3,5.23-3,7.85-3,5.26,3,7.87,3m0,0c2.61,0,5.23-3,7.84-3s5.26,3,7.88,3,5.22-3,7.87-3,5.23,3,7.84,3" transform="translate(-0.89 -0.11)"/>
  <g>
    <path class="cls-2" d="M16,62.77v8.06a18.84,18.84,0,0,1-3.25,1.26,12.22,12.22,0,0,1-3.07.42A8.55,8.55,0,0,1,.9,64.2v-.49a8.59,8.59,0,0,1,2.5-6.36,8.71,8.71,0,0,1,6.41-2.51,9.49,9.49,0,0,1,5.34,1.61l-.43,4.15a8.17,8.17,0,0,0-2.29-1.71A5.67,5.67,0,0,0,10,58.35a5,5,0,0,0-3.69,1.49,5.13,5.13,0,0,0-1.46,3.73,5.37,5.37,0,0,0,1.41,3.85A4.84,4.84,0,0,0,9.9,68.91a5.55,5.55,0,0,0,1-.09,10.38,10.38,0,0,0,1.1-.27V66.14H8.92V62.77Z" transform="translate(-0.89 -0.11)"/>
    <path class="cls-2" d="M19.3,72V55.4h3.95V72Z" transform="translate(-0.89 -0.11)"/>
    <path class="cls-2" d="M27.11,72V55.4h4v13h6.46V72Z" transform="translate(-0.89 -0.11)"/>
    <path class="cls-2" d="M42.81,55.4v9.11a5.49,5.49,0,0,0,.81,3.28,2.82,2.82,0,0,0,2.44,1.1,2.93,2.93,0,0,0,2.4-1,4.57,4.57,0,0,0,.83-3V55.4h3.53v9.51A7.94,7.94,0,0,1,51,70.5a6.58,6.58,0,0,1-5.11,2,6.64,6.64,0,0,1-5.14-2,8,8,0,0,1-1.83-5.59V55.4Z" transform="translate(-0.89 -0.11)"/>
    <path class="cls-2" d="M55,72l8.2-13.14H55.81l.62-3.46H69.59L61.37,68.46h8.22L69,72Zm4-22.38h1.47L62.4,52l1.9-2.39h1.5l-2.15,4H61.16Z" transform="translate(-0.89 -0.11)"/>
    <path class="cls-2" d="M72.16,72V55.4h4V72Z" transform="translate(-0.89 -0.11)"/>
    <path class="cls-2" d="M79,63.68a9.21,9.21,0,0,1,.64-3.44,8.83,8.83,0,0,1,1.87-2.88,8.34,8.34,0,0,1,11.94,0,8.05,8.05,0,0,1,1.84,2.83,9.54,9.54,0,0,1,.62,3.46,10,10,0,0,1-.43,2.93,8,8,0,0,1-1.3,2.5,8.47,8.47,0,0,1-3,2.51A8.24,8.24,0,0,1,81.46,70a8.64,8.64,0,0,1-1.87-2.86A9.1,9.1,0,0,1,79,63.68Zm4.07,0a5.33,5.33,0,0,0,1.27,3.62,4.06,4.06,0,0,0,5.72.51,3.51,3.51,0,0,0,.51-.51,5.87,5.87,0,0,0,0-7.27,4.07,4.07,0,0,0-5.73-.5,4.72,4.72,0,0,0-.5.5A5.44,5.44,0,0,0,83,63.68Z" transform="translate(-0.89 -0.11)"/>
    <path class="cls-2" d="M105.38,72V55.4h4.27a14.05,14.05,0,0,1,3.17.27,5.46,5.46,0,0,1,2,.89,4.64,4.64,0,0,1,1.44,1.64,4.4,4.4,0,0,1,.51,2.07A4.79,4.79,0,0,1,116,63a5.22,5.22,0,0,1-2.29,1.84l5,7.12H114.2l-4.43-6.5h-.56V72Zm4.5-13.56h-.66V63h.84a3.72,3.72,0,0,0,2.29-.61,2,2,0,0,0,.78-1.73,1.94,1.94,0,0,0-.76-1.72,4.41,4.41,0,0,0-2.49-.53Z" transform="translate(-0.89 -0.11)"/>
    <path class="cls-2" d="M120.35,72V55.4h4V72Z" transform="translate(-0.89 -0.11)"/>
    <path class="cls-2" d="M133.8,72.6h-.27l-7.82-17.2h4.18l3.91,9.06,3.94-9.06h3.88Z" transform="translate(-0.89 -0.11)"/>
    <path class="cls-2" d="M141.08,68.51a11.43,11.43,0,0,0,1.16.42,4.1,4.1,0,0,0,.92.14,1.84,1.84,0,0,0,1.68-.77,5,5,0,0,0,.51-2.63V55.4h4V66.61a6,6,0,0,1-1.5,4.39,5.64,5.64,0,0,1-4.26,1.52,7.41,7.41,0,0,1-1.05-.07,10.28,10.28,0,0,1-1.08-.21Z" transform="translate(-0.89 -0.11)"/>
    <path class="cls-2" d="M152.81,72V55.4H163v3.41h-6.37v3h5.45V65.2h-5.45v3.29h6.46V72Z" transform="translate(-0.89 -0.11)"/>
    <path class="cls-2" d="M166.13,72V55.4h4.26a14.05,14.05,0,0,1,3.17.27,5.46,5.46,0,0,1,2,.89A4.64,4.64,0,0,1,177,58.2a4.4,4.4,0,0,1,.51,2.07,4.76,4.76,0,0,1-.79,2.74,5.29,5.29,0,0,1-2.29,1.84l5,7.15H175l-4.42-6.5H170V72Zm4.49-13.56H170V63h.83a3.72,3.72,0,0,0,2.29-.61,2,2,0,0,0,.79-1.73,1.92,1.92,0,0,0-.77-1.72,4.43,4.43,0,0,0-2.52-.53Z" transform="translate(-0.89 -0.11)"/>
    <path class="cls-2" d="M178.45,72l8.45-17.09h.25L195.41,72h-4.13l-1.06-2.41H183.5L182.43,72Zm6.2-5.27H189l-2.15-5.19Z" transform="translate(-0.89 -0.11)"/>
  </g>
</svg>
