<svg id="Layer_1" data-name="Layer 1" xmlns="http://www.w3.org/2000/svg" width="93.14" height="14.2" viewBox="0 0 93.14 14.2">
  <defs>
    <style>
      .cls-1 {
        fill: none;
        stroke: #48271d;
        stroke-linecap: round;
        stroke-linejoin: round;
        stroke-width: 2px;
      }
    </style>
  </defs>
  <path class="cls-1" d="M1,4.07c2.55,0,5.08-2.94,7.6-2.94s5,2.94,7.6,2.94,5.05-2.94,7.57-2.94,5.08,2.94,7.61,2.94,5-2.94,7.57-2.94S44,4.07,46.55,4.07m0,0c2.52,0,5-2.94,7.6-2.94s5.05,2.94,7.57,2.94,5.08-2.94,7.6-2.94,5,2.94,7.57,2.94S82,1.13,84.54,1.13s5,2.94,7.6,2.94" transform="translate(0 -0.13)"/>
  <path class="cls-1" d="M15.14,13.33c2.65,0,5.26-3,7.88-3s5.22,3,7.87,3,5.23-3,7.84-3,5.26,3,7.87,3m0,0c2.62,0,5.23-3,7.85-3s5.26,3,7.87,3,5.23-3,7.87-3,5.23,3,7.85,3" transform="translate(0 -0.13)"/>
</svg>
